# xmcd
#
# Track frame offsets:
#	150
#	16685
#	35122
#	49908
#	67190
#	87824
#	101872
#	117113
#	132581
#	151507
#	162547
#	180591
#	199679
#
# Disc length: 2921 seconds
#
# Revision: 0
# Processed by: cddbd v1.4PL0 Copyright (c) Steve Scherf et al.
# Submitted via: EZCDDA 4.3.3.2
#
DISCID=ae0b670d
DTITLE=Dixie Chicks - Ultra Rare Trax Disc 9
DYEAR=1900
DGENRE=
TTITLE0=There's Your Trouble
TTITLE1=Wide Open Spaces
TTITLE2=Let Er Rip
TTITLE3=Wide Open Spaces
TTITLE4=Cowboy Take Me Away
TTITLE5=Sin Wagon
TTITLE6=Let Him Fly
TTITLE7=There's Your Trouble
TTITLE8=Cowboy Take Me Away
TTITLE9=Ready To Run
TTITLE10=Give It Up Or Let Me Go
TTITLE11=Sin Wagon
TTITLE12=Cold Day In July
EXTD=
EXTT0=
EXTT1=
EXTT2=
EXTT3=
EXTT4=
EXTT5=
EXTT6=
EXTT7=
EXTT8=
EXTT9=
EXTT10=
EXTT11=
EXTT12=
PLAYORDER=
